<mxfile host="Electron" modified="2023-09-14T01:20:00.058Z" agent="Mozilla/5.0 (Macintosh; Intel Mac OS X 10_15_7) AppleWebKit/537.36 (KHTML, like Gecko) draw.io/21.6.8 Chrome/114.0.5735.289 Electron/25.5.0 Safari/537.36" etag="ATqy9AlkQcxhqS5A4ODh" version="21.6.8" type="device">
  <diagram id="u-Bgehv5GdRI6xBluCmY" name="Page-1">
    <mxGraphModel dx="1114" dy="806" grid="1" gridSize="10" guides="1" tooltips="1" connect="1" arrows="1" fold="1" page="1" pageScale="1" pageWidth="1600" pageHeight="900" math="0" shadow="0">
      <root>
        <mxCell id="0" />
        <mxCell id="1" parent="0" />
        <mxCell id="NKZoFBCDpuy2na6IxqbC-1" value="" style="rounded=0;whiteSpace=wrap;html=1;" parent="1" vertex="1">
          <mxGeometry x="40" y="40" width="340" height="800" as="geometry" />
        </mxCell>
        <mxCell id="NKZoFBCDpuy2na6IxqbC-3" value="" style="rounded=0;whiteSpace=wrap;html=1;" parent="1" vertex="1">
          <mxGeometry x="380" y="40" width="400" height="800" as="geometry" />
        </mxCell>
        <mxCell id="NKZoFBCDpuy2na6IxqbC-17" value="" style="group" parent="1" vertex="1" connectable="0">
          <mxGeometry x="40" y="40" width="340" height="50" as="geometry" />
        </mxCell>
        <mxCell id="NKZoFBCDpuy2na6IxqbC-15" value="" style="rounded=0;whiteSpace=wrap;html=1;fillColor=#5762b3;" parent="NKZoFBCDpuy2na6IxqbC-17" vertex="1">
          <mxGeometry width="340" height="50" as="geometry" />
        </mxCell>
        <mxCell id="NKZoFBCDpuy2na6IxqbC-16" value="&lt;font color=&quot;#ffffff&quot; style=&quot;font-size: 24px;&quot;&gt;User Edge, Field Deployed&lt;/font&gt;" style="text;strokeColor=none;align=center;fillColor=none;html=1;verticalAlign=middle;whiteSpace=wrap;rounded=0;" parent="NKZoFBCDpuy2na6IxqbC-17" vertex="1">
          <mxGeometry x="12.142857142857142" y="10" width="297.5" height="30" as="geometry" />
        </mxCell>
        <mxCell id="NKZoFBCDpuy2na6IxqbC-23" value="" style="group" parent="1" vertex="1" connectable="0">
          <mxGeometry x="380" y="40" width="400" height="50" as="geometry" />
        </mxCell>
        <mxCell id="NKZoFBCDpuy2na6IxqbC-21" value="" style="rounded=0;whiteSpace=wrap;html=1;fillColor=#E7DBF0;" parent="NKZoFBCDpuy2na6IxqbC-23" vertex="1">
          <mxGeometry width="400" height="50" as="geometry" />
        </mxCell>
        <mxCell id="NKZoFBCDpuy2na6IxqbC-22" value="&lt;font style=&quot;font-size: 24px;&quot;&gt;Global and Cloud Compute&lt;/font&gt;" style="text;strokeColor=none;align=center;fillColor=none;html=1;verticalAlign=middle;whiteSpace=wrap;rounded=0;" parent="NKZoFBCDpuy2na6IxqbC-23" vertex="1">
          <mxGeometry x="50" y="10" width="300" height="30" as="geometry" />
        </mxCell>
        <mxCell id="iU7ZojFt_CZGEspTZ9bw-25" value="" style="rounded=0;whiteSpace=wrap;html=1;fillColor=#f5f5f5;strokeColor=#666666;fontColor=#333333;" parent="1" vertex="1">
          <mxGeometry x="170" y="90" width="210" height="750" as="geometry" />
        </mxCell>
        <mxCell id="rkRexL7u3ubiK1zSjF01-2" value="" style="endArrow=none;html=1;rounded=0;exitX=0.001;exitY=0.697;exitDx=0;exitDy=0;exitPerimeter=0;entryX=1.002;entryY=0.702;entryDx=0;entryDy=0;entryPerimeter=0;" parent="1" source="NKZoFBCDpuy2na6IxqbC-1" target="NKZoFBCDpuy2na6IxqbC-3" edge="1">
          <mxGeometry width="50" height="50" relative="1" as="geometry">
            <mxPoint x="780" y="380" as="sourcePoint" />
            <mxPoint x="830" y="330" as="targetPoint" />
          </mxGeometry>
        </mxCell>
        <mxCell id="rkRexL7u3ubiK1zSjF01-3" value="" style="endArrow=none;html=1;rounded=0;exitX=0.004;exitY=0.352;exitDx=0;exitDy=0;exitPerimeter=0;entryX=1.005;entryY=0.347;entryDx=0;entryDy=0;entryPerimeter=0;" parent="1" source="NKZoFBCDpuy2na6IxqbC-1" target="NKZoFBCDpuy2na6IxqbC-3" edge="1">
          <mxGeometry width="50" height="50" relative="1" as="geometry">
            <mxPoint x="810" y="370" as="sourcePoint" />
            <mxPoint x="860" y="320" as="targetPoint" />
          </mxGeometry>
        </mxCell>
        <mxCell id="rkRexL7u3ubiK1zSjF01-4" value="&lt;font style=&quot;font-size: 24px;&quot;&gt;Infrastructure&lt;/font&gt;" style="text;strokeColor=none;align=center;fillColor=none;html=1;verticalAlign=middle;whiteSpace=wrap;rounded=0;rotation=-90;" parent="1" vertex="1">
          <mxGeometry x="-60" y="700" width="160" height="30" as="geometry" />
        </mxCell>
        <mxCell id="rkRexL7u3ubiK1zSjF01-5" value="&lt;font style=&quot;font-size: 24px;&quot;&gt;Platform&lt;/font&gt;" style="text;strokeColor=none;align=center;fillColor=none;html=1;verticalAlign=middle;whiteSpace=wrap;rounded=0;rotation=-90;" parent="1" vertex="1">
          <mxGeometry x="-45" y="435" width="130" height="30" as="geometry" />
        </mxCell>
        <mxCell id="rkRexL7u3ubiK1zSjF01-6" value="&lt;font style=&quot;font-size: 24px;&quot;&gt;Application&lt;/font&gt;" style="text;strokeColor=none;align=center;fillColor=none;html=1;verticalAlign=middle;whiteSpace=wrap;rounded=0;rotation=-90;" parent="1" vertex="1">
          <mxGeometry x="-60" y="190" width="160" height="30" as="geometry" />
        </mxCell>
        <mxCell id="DdygFeS5iC_50R2foRWw-4" style="edgeStyle=orthogonalEdgeStyle;rounded=0;orthogonalLoop=1;jettySize=auto;html=1;entryX=0;entryY=0.5;entryDx=0;entryDy=0;strokeWidth=4;" parent="1" source="dV2BF6gwbEOyX98F7W6L-9" target="iU7ZojFt_CZGEspTZ9bw-17" edge="1">
          <mxGeometry relative="1" as="geometry">
            <Array as="points">
              <mxPoint x="140" y="636" />
              <mxPoint x="140" y="156" />
            </Array>
          </mxGeometry>
        </mxCell>
        <mxCell id="dV2BF6gwbEOyX98F7W6L-9" value="&lt;span style=&quot;font-size: 13px;&quot;&gt;SENSORS&lt;br style=&quot;font-size: 13px;&quot;&gt;&lt;/span&gt;" style="aspect=fixed;perimeter=ellipsePerimeter;html=1;align=center;shadow=0;dashed=0;fontColor=#4277BB;labelBackgroundColor=#ffffff;fontSize=13;spacingTop=3;image;image=img/lib/ibm/users/sensor.svg;" parent="1" vertex="1">
          <mxGeometry x="88" y="620" width="32" height="31.2" as="geometry" />
        </mxCell>
        <mxCell id="iU7ZojFt_CZGEspTZ9bw-1" value="&lt;font style=&quot;font-size: 12px;&quot;&gt;fixed function devices&lt;br&gt;&lt;/font&gt;" style="text;strokeColor=none;align=center;fillColor=none;html=1;verticalAlign=middle;whiteSpace=wrap;rounded=0;" parent="1" vertex="1">
          <mxGeometry x="40" y="90" width="130" height="30" as="geometry" />
        </mxCell>
        <mxCell id="iU7ZojFt_CZGEspTZ9bw-3" value="edge servers &amp;amp; gateways" style="text;strokeColor=none;align=center;fillColor=none;html=1;verticalAlign=middle;whiteSpace=wrap;rounded=0;" parent="1" vertex="1">
          <mxGeometry x="198.5" y="89" width="150" height="30" as="geometry" />
        </mxCell>
        <mxCell id="DdygFeS5iC_50R2foRWw-5" style="edgeStyle=orthogonalEdgeStyle;rounded=0;orthogonalLoop=1;jettySize=auto;html=1;entryX=0;entryY=0.5;entryDx=0;entryDy=0;strokeWidth=4;" parent="1" source="iU7ZojFt_CZGEspTZ9bw-17" target="iU7ZojFt_CZGEspTZ9bw-20" edge="1">
          <mxGeometry relative="1" as="geometry" />
        </mxCell>
        <mxCell id="iU7ZojFt_CZGEspTZ9bw-17" value="&lt;font style=&quot;font-size: 13px;&quot;&gt;MSG.&lt;br style=&quot;font-size: 13px;&quot;&gt;QUEUE&lt;/font&gt;" style="aspect=fixed;perimeter=ellipsePerimeter;html=1;align=center;shadow=0;dashed=0;fontColor=#4277BB;labelBackgroundColor=#ffffff;fontSize=13;spacingTop=3;image;image=img/lib/ibm/applications/enterprise_applications.svg;" parent="1" vertex="1">
          <mxGeometry x="212.5" y="140.00000000000003" width="32" height="32" as="geometry" />
        </mxCell>
        <mxCell id="DdygFeS5iC_50R2foRWw-6" style="edgeStyle=orthogonalEdgeStyle;rounded=0;orthogonalLoop=1;jettySize=auto;html=1;entryX=0;entryY=0.5;entryDx=0;entryDy=0;strokeWidth=4;dashed=1;fillColor=#dae8fc;strokeColor=#6c8ebf;" parent="1" source="iU7ZojFt_CZGEspTZ9bw-20" target="DdygFeS5iC_50R2foRWw-1" edge="1">
          <mxGeometry relative="1" as="geometry" />
        </mxCell>
        <mxCell id="iU7ZojFt_CZGEspTZ9bw-20" value="&lt;font style=&quot;font-size: 13px;&quot;&gt;DATA&lt;br style=&quot;font-size: 13px;&quot;&gt;FORWARDING&lt;/font&gt;" style="aspect=fixed;perimeter=ellipsePerimeter;html=1;align=center;shadow=0;dashed=0;fontColor=#4277BB;labelBackgroundColor=#ffffff;fontSize=13;spacingTop=3;image;image=img/lib/ibm/data/data_services.svg;" parent="1" vertex="1">
          <mxGeometry x="312.5" y="140.39000000000004" width="32" height="31.22" as="geometry" />
        </mxCell>
        <mxCell id="iU7ZojFt_CZGEspTZ9bw-21" value="&lt;font style=&quot;font-size: 13px;&quot;&gt;CONTAINER&lt;br style=&quot;font-size: 13px;&quot;&gt;ENGINE&lt;br style=&quot;font-size: 13px;&quot;&gt;&lt;/font&gt;" style="aspect=fixed;perimeter=ellipsePerimeter;html=1;align=center;shadow=0;dashed=0;fontColor=#4277BB;labelBackgroundColor=#ffffff;fontSize=13;spacingTop=3;image;image=img/lib/ibm/miscellaneous/ibm_containers.svg;" parent="1" vertex="1">
          <mxGeometry x="212.5" y="511" width="32" height="32" as="geometry" />
        </mxCell>
        <mxCell id="iU7ZojFt_CZGEspTZ9bw-22" value="&lt;font style=&quot;font-size: 13px;&quot;&gt;CONTAINER&lt;br style=&quot;font-size: 13px;&quot;&gt;CLUSTER&lt;br style=&quot;font-size: 13px;&quot;&gt;&lt;/font&gt;" style="aspect=fixed;perimeter=ellipsePerimeter;html=1;align=center;shadow=0;dashed=0;fontColor=#4277BB;labelBackgroundColor=#ffffff;fontSize=13;spacingTop=3;image;image=img/lib/ibm/management/management.svg;glass=1;strokeColor=#4277BB;strokeWidth=2;fillColor=#4277BB;" parent="1" vertex="1">
          <mxGeometry x="430" y="510.20000000000005" width="32" height="32.8" as="geometry" />
        </mxCell>
        <mxCell id="DdygFeS5iC_50R2foRWw-3" style="edgeStyle=orthogonalEdgeStyle;rounded=0;orthogonalLoop=1;jettySize=auto;html=1;entryX=0;entryY=0.5;entryDx=0;entryDy=0;strokeWidth=4;dashed=1;fillColor=#dae8fc;strokeColor=#6c8ebf;" parent="1" source="iU7ZojFt_CZGEspTZ9bw-33" target="DdygFeS5iC_50R2foRWw-2" edge="1">
          <mxGeometry relative="1" as="geometry" />
        </mxCell>
        <mxCell id="iU7ZojFt_CZGEspTZ9bw-33" value="&lt;font style=&quot;font-size: 13px;&quot;&gt;APP. MGMT.&lt;br style=&quot;font-size: 13px;&quot;&gt;AGENT&lt;/font&gt;" style="aspect=fixed;perimeter=ellipsePerimeter;html=1;align=center;shadow=0;dashed=0;fontColor=#4277BB;labelBackgroundColor=#ffffff;fontSize=13;spacingTop=3;image;image=img/lib/ibm/management/it_service_management.svg;glass=1;strokeColor=#4277BB;strokeWidth=2;fillColor=#4277BB;" parent="1" vertex="1">
          <mxGeometry x="212.5" y="342" width="32" height="32" as="geometry" />
        </mxCell>
        <mxCell id="iU7ZojFt_CZGEspTZ9bw-38" value="&lt;div style=&quot;font-size: 13px;&quot;&gt;&lt;font style=&quot;font-size: 13px;&quot;&gt;INTERMITTENT&lt;/font&gt;&lt;/div&gt;&lt;div style=&quot;font-size: 13px;&quot;&gt;&lt;font style=&quot;font-size: 13px;&quot;&gt;SATELLITE&lt;/font&gt;&lt;/div&gt;&lt;div style=&quot;font-size: 13px;&quot;&gt;&lt;font style=&quot;font-size: 13px;&quot;&gt;CONNECTIVITY&lt;/font&gt;&lt;br style=&quot;font-size: 13px;&quot;&gt;&lt;/div&gt;" style="aspect=fixed;perimeter=ellipsePerimeter;html=1;align=center;shadow=0;dashed=0;image;image=img/lib/ibm/infrastructure/transformation_connectivity.svg;strokeColor=#FF0000;fillColor=#FFFF66;gradientColor=none;fontColor=#4277BB;labelBackgroundColor=#ffffff;spacingTop=3;fontSize=13;" parent="1" vertex="1">
          <mxGeometry x="209" y="619.2" width="32" height="32" as="geometry" />
        </mxCell>
        <mxCell id="iU7ZojFt_CZGEspTZ9bw-39" value="&lt;font style=&quot;font-size: 13px;&quot;&gt;STORAGE&lt;/font&gt;" style="aspect=fixed;perimeter=ellipsePerimeter;html=1;align=center;shadow=0;dashed=0;fontColor=#4277BB;labelBackgroundColor=#ffffff;fontSize=13;spacingTop=3;image;image=img/lib/ibm/data/data_services.svg;" parent="1" vertex="1">
          <mxGeometry x="430" y="619.1999999999999" width="32" height="31.22" as="geometry" />
        </mxCell>
        <mxCell id="DdygFeS5iC_50R2foRWw-8" style="edgeStyle=orthogonalEdgeStyle;rounded=0;orthogonalLoop=1;jettySize=auto;html=1;entryX=0;entryY=0.5;entryDx=0;entryDy=0;strokeWidth=4;" parent="1" source="DdygFeS5iC_50R2foRWw-1" target="DdygFeS5iC_50R2foRWw-7" edge="1">
          <mxGeometry relative="1" as="geometry" />
        </mxCell>
        <mxCell id="DdygFeS5iC_50R2foRWw-1" value="&lt;font style=&quot;font-size: 13px;&quot;&gt;MSG.&lt;br style=&quot;font-size: 13px;&quot;&gt;QUEUE&lt;/font&gt;" style="aspect=fixed;perimeter=ellipsePerimeter;html=1;align=center;shadow=0;dashed=0;fontColor=#4277BB;labelBackgroundColor=#ffffff;fontSize=13;spacingTop=3;image;image=img/lib/ibm/applications/enterprise_applications.svg;" parent="1" vertex="1">
          <mxGeometry x="426" y="139.61" width="32" height="32" as="geometry" />
        </mxCell>
        <mxCell id="DdygFeS5iC_50R2foRWw-2" value="&lt;font style=&quot;font-size: 13px;&quot;&gt;APP.&lt;br style=&quot;font-size: 13px;&quot;&gt;MGMT.&lt;/font&gt;" style="aspect=fixed;perimeter=ellipsePerimeter;html=1;align=center;shadow=0;dashed=0;fontColor=#4277BB;labelBackgroundColor=#ffffff;fontSize=13;spacingTop=3;image;image=img/lib/ibm/management/it_service_management.svg;glass=1;strokeColor=#4277BB;strokeWidth=2;fillColor=#4277BB;" parent="1" vertex="1">
          <mxGeometry x="430" y="342" width="32" height="32" as="geometry" />
        </mxCell>
        <mxCell id="DdygFeS5iC_50R2foRWw-9" style="edgeStyle=orthogonalEdgeStyle;rounded=0;orthogonalLoop=1;jettySize=auto;html=1;strokeWidth=4;" parent="1" source="DdygFeS5iC_50R2foRWw-7" target="iU7ZojFt_CZGEspTZ9bw-39" edge="1">
          <mxGeometry relative="1" as="geometry">
            <Array as="points">
              <mxPoint x="560" y="156" />
              <mxPoint x="560" y="635" />
            </Array>
          </mxGeometry>
        </mxCell>
        <mxCell id="DdygFeS5iC_50R2foRWw-7" value="&lt;font style=&quot;font-size: 13px;&quot;&gt;MESSAGE&lt;br style=&quot;font-size: 13px;&quot;&gt;DISPATCHER&lt;/font&gt;" style="aspect=fixed;perimeter=ellipsePerimeter;html=1;align=center;shadow=0;dashed=0;fontColor=#4277BB;labelBackgroundColor=#ffffff;fontSize=13;spacingTop=3;image;image=img/lib/ibm/applications/enterprise_applications.svg;" parent="1" vertex="1">
          <mxGeometry x="500" y="140.39000000000001" width="32" height="32" as="geometry" />
        </mxCell>
        <mxCell id="DdygFeS5iC_50R2foRWw-10" value="" style="whiteSpace=wrap;html=1;" parent="1" vertex="1">
          <mxGeometry x="600" y="620" width="160" height="200" as="geometry" />
        </mxCell>
        <mxCell id="DdygFeS5iC_50R2foRWw-11" value="&lt;b&gt;Legend&lt;/b&gt;" style="text;strokeColor=none;align=center;fillColor=none;html=1;verticalAlign=middle;whiteSpace=wrap;rounded=0;" parent="1" vertex="1">
          <mxGeometry x="640" y="621.2" width="60" height="30" as="geometry" />
        </mxCell>
        <mxCell id="DdygFeS5iC_50R2foRWw-12" value="" style="edgeStyle=none;orthogonalLoop=1;jettySize=auto;html=1;rounded=0;strokeWidth=4;" parent="1" edge="1">
          <mxGeometry width="80" relative="1" as="geometry">
            <mxPoint x="640" y="731" as="sourcePoint" />
            <mxPoint x="720" y="731" as="targetPoint" />
            <Array as="points" />
          </mxGeometry>
        </mxCell>
        <mxCell id="DdygFeS5iC_50R2foRWw-13" value="" style="edgeStyle=none;orthogonalLoop=1;jettySize=auto;html=1;rounded=0;strokeWidth=4;dashed=1;fillColor=#dae8fc;strokeColor=#6c8ebf;" parent="1" edge="1">
          <mxGeometry width="80" relative="1" as="geometry">
            <mxPoint x="640" y="790" as="sourcePoint" />
            <mxPoint x="720" y="790" as="targetPoint" />
            <Array as="points" />
          </mxGeometry>
        </mxCell>
        <mxCell id="DdygFeS5iC_50R2foRWw-15" value="Data flow" style="text;strokeColor=none;align=center;fillColor=none;html=1;verticalAlign=middle;whiteSpace=wrap;rounded=0;fontSize=13;" parent="1" vertex="1">
          <mxGeometry x="640" y="691" width="60" height="30" as="geometry" />
        </mxCell>
        <mxCell id="DdygFeS5iC_50R2foRWw-16" value="Internet Connection" style="text;strokeColor=none;align=center;fillColor=none;html=1;verticalAlign=middle;whiteSpace=wrap;rounded=0;fontSize=13;" parent="1" vertex="1">
          <mxGeometry x="640" y="750" width="60" height="30" as="geometry" />
        </mxCell>
        <mxCell id="DdygFeS5iC_50R2foRWw-17" value="Arrow shows initiation" style="text;strokeColor=none;align=center;fillColor=none;html=1;verticalAlign=middle;whiteSpace=wrap;rounded=0;fontSize=13;" parent="1" vertex="1">
          <mxGeometry x="640" y="657" width="80" height="30" as="geometry" />
        </mxCell>
      </root>
    </mxGraphModel>
  </diagram>
</mxfile>
